<?xml version="1.0" encoding="UTF-8"?>
<svg xmlns="http://www.w3.org/2000/svg" viewBox="0 0 275 275" width="275" height="275">
  <rect width="100%" height="100%" fill="#ffffff"/>
  <g fill="#000000">
    <rect x="0" y="0" width="11" height="11"/>
    <rect x="11" y="0" width="11" height="11"/>
    <rect x="22" y="0" width="11" height="11"/>
    <rect x="33" y="0" width="11" height="11"/>
    <rect x="44" y="0" width="11" height="11"/>
    <rect x="55" y="0" width="11" height="11"/>
    <rect x="66" y="0" width="11" height="11"/>
    <rect x="110" y="0" width="11" height="11"/>
    <rect x="121" y="0" width="11" height="11"/>
    <rect x="143" y="0" width="11" height="11"/>
    <rect x="154" y="0" width="11" height="11"/>
    <rect x="165" y="0" width="11" height="11"/>
    <rect x="176" y="0" width="11" height="11"/>
    <rect x="198" y="0" width="11" height="11"/>
    <rect x="209" y="0" width="11" height="11"/>
    <rect x="220" y="0" width="11" height="11"/>
    <rect x="231" y="0" width="11" height="11"/>
    <rect x="242" y="0" width="11" height="11"/>
    <rect x="253" y="0" width="11" height="11"/>
    <rect x="264" y="0" width="11" height="11"/>
    <rect x="0" y="11" width="11" height="11"/>
    <rect x="66" y="11" width="11" height="11"/>
    <rect x="88" y="11" width="11" height="11"/>
    <rect x="110" y="11" width="11" height="11"/>
    <rect x="121" y="11" width="11" height="11"/>
    <rect x="132" y="11" width="11" height="11"/>
    <rect x="143" y="11" width="11" height="11"/>
    <rect x="154" y="11" width="11" height="11"/>
    <rect x="165" y="11" width="11" height="11"/>
    <rect x="176" y="11" width="11" height="11"/>
    <rect x="198" y="11" width="11" height="11"/>
    <rect x="264" y="11" width="11" height="11"/>
    <rect x="0" y="22" width="11" height="11"/>
    <rect x="22" y="22" width="11" height="11"/>
    <rect x="33" y="22" width="11" height="11"/>
    <rect x="44" y="22" width="11" height="11"/>
    <rect x="66" y="22" width="11" height="11"/>
    <rect x="88" y="22" width="11" height="11"/>
    <rect x="110" y="22" width="11" height="11"/>
    <rect x="121" y="22" width="11" height="11"/>
    <rect x="165" y="22" width="11" height="11"/>
    <rect x="198" y="22" width="11" height="11"/>
    <rect x="220" y="22" width="11" height="11"/>
    <rect x="231" y="22" width="11" height="11"/>
    <rect x="242" y="22" width="11" height="11"/>
    <rect x="264" y="22" width="11" height="11"/>
    <rect x="0" y="33" width="11" height="11"/>
    <rect x="22" y="33" width="11" height="11"/>
    <rect x="33" y="33" width="11" height="11"/>
    <rect x="44" y="33" width="11" height="11"/>
    <rect x="66" y="33" width="11" height="11"/>
    <rect x="99" y="33" width="11" height="11"/>
    <rect x="121" y="33" width="11" height="11"/>
    <rect x="154" y="33" width="11" height="11"/>
    <rect x="165" y="33" width="11" height="11"/>
    <rect x="198" y="33" width="11" height="11"/>
    <rect x="220" y="33" width="11" height="11"/>
    <rect x="231" y="33" width="11" height="11"/>
    <rect x="242" y="33" width="11" height="11"/>
    <rect x="264" y="33" width="11" height="11"/>
    <rect x="0" y="44" width="11" height="11"/>
    <rect x="22" y="44" width="11" height="11"/>
    <rect x="33" y="44" width="11" height="11"/>
    <rect x="44" y="44" width="11" height="11"/>
    <rect x="66" y="44" width="11" height="11"/>
    <rect x="88" y="44" width="11" height="11"/>
    <rect x="99" y="44" width="11" height="11"/>
    <rect x="121" y="44" width="11" height="11"/>
    <rect x="143" y="44" width="11" height="11"/>
    <rect x="165" y="44" width="11" height="11"/>
    <rect x="176" y="44" width="11" height="11"/>
    <rect x="198" y="44" width="11" height="11"/>
    <rect x="220" y="44" width="11" height="11"/>
    <rect x="231" y="44" width="11" height="11"/>
    <rect x="242" y="44" width="11" height="11"/>
    <rect x="264" y="44" width="11" height="11"/>
    <rect x="0" y="55" width="11" height="11"/>
    <rect x="66" y="55" width="11" height="11"/>
    <rect x="88" y="55" width="11" height="11"/>
    <rect x="110" y="55" width="11" height="11"/>
    <rect x="132" y="55" width="11" height="11"/>
    <rect x="154" y="55" width="11" height="11"/>
    <rect x="165" y="55" width="11" height="11"/>
    <rect x="198" y="55" width="11" height="11"/>
    <rect x="264" y="55" width="11" height="11"/>
    <rect x="0" y="66" width="11" height="11"/>
    <rect x="11" y="66" width="11" height="11"/>
    <rect x="22" y="66" width="11" height="11"/>
    <rect x="33" y="66" width="11" height="11"/>
    <rect x="44" y="66" width="11" height="11"/>
    <rect x="55" y="66" width="11" height="11"/>
    <rect x="66" y="66" width="11" height="11"/>
    <rect x="88" y="66" width="11" height="11"/>
    <rect x="110" y="66" width="11" height="11"/>
    <rect x="132" y="66" width="11" height="11"/>
    <rect x="154" y="66" width="11" height="11"/>
    <rect x="176" y="66" width="11" height="11"/>
    <rect x="198" y="66" width="11" height="11"/>
    <rect x="209" y="66" width="11" height="11"/>
    <rect x="220" y="66" width="11" height="11"/>
    <rect x="231" y="66" width="11" height="11"/>
    <rect x="242" y="66" width="11" height="11"/>
    <rect x="253" y="66" width="11" height="11"/>
    <rect x="264" y="66" width="11" height="11"/>
    <rect x="88" y="77" width="11" height="11"/>
    <rect x="110" y="77" width="11" height="11"/>
    <rect x="132" y="77" width="11" height="11"/>
    <rect x="0" y="88" width="11" height="11"/>
    <rect x="11" y="88" width="11" height="11"/>
    <rect x="33" y="88" width="11" height="11"/>
    <rect x="66" y="88" width="11" height="11"/>
    <rect x="77" y="88" width="11" height="11"/>
    <rect x="121" y="88" width="11" height="11"/>
    <rect x="143" y="88" width="11" height="11"/>
    <rect x="154" y="88" width="11" height="11"/>
    <rect x="176" y="88" width="11" height="11"/>
    <rect x="198" y="88" width="11" height="11"/>
    <rect x="209" y="88" width="11" height="11"/>
    <rect x="220" y="88" width="11" height="11"/>
    <rect x="242" y="88" width="11" height="11"/>
    <rect x="253" y="88" width="11" height="11"/>
    <rect x="0" y="99" width="11" height="11"/>
    <rect x="11" y="99" width="11" height="11"/>
    <rect x="44" y="99" width="11" height="11"/>
    <rect x="77" y="99" width="11" height="11"/>
    <rect x="99" y="99" width="11" height="11"/>
    <rect x="132" y="99" width="11" height="11"/>
    <rect x="143" y="99" width="11" height="11"/>
    <rect x="154" y="99" width="11" height="11"/>
    <rect x="176" y="99" width="11" height="11"/>
    <rect x="187" y="99" width="11" height="11"/>
    <rect x="198" y="99" width="11" height="11"/>
    <rect x="209" y="99" width="11" height="11"/>
    <rect x="264" y="99" width="11" height="11"/>
    <rect x="0" y="110" width="11" height="11"/>
    <rect x="11" y="110" width="11" height="11"/>
    <rect x="22" y="110" width="11" height="11"/>
    <rect x="33" y="110" width="11" height="11"/>
    <rect x="66" y="110" width="11" height="11"/>
    <rect x="77" y="110" width="11" height="11"/>
    <rect x="88" y="110" width="11" height="11"/>
    <rect x="143" y="110" width="11" height="11"/>
    <rect x="176" y="110" width="11" height="11"/>
    <rect x="187" y="110" width="11" height="11"/>
    <rect x="209" y="110" width="11" height="11"/>
    <rect x="220" y="110" width="11" height="11"/>
    <rect x="253" y="110" width="11" height="11"/>
    <rect x="264" y="110" width="11" height="11"/>
    <rect x="33" y="121" width="11" height="11"/>
    <rect x="55" y="121" width="11" height="11"/>
    <rect x="77" y="121" width="11" height="11"/>
    <rect x="99" y="121" width="11" height="11"/>
    <rect x="110" y="121" width="11" height="11"/>
    <rect x="121" y="121" width="11" height="11"/>
    <rect x="132" y="121" width="11" height="11"/>
    <rect x="143" y="121" width="11" height="11"/>
    <rect x="176" y="121" width="11" height="11"/>
    <rect x="198" y="121" width="11" height="11"/>
    <rect x="22" y="132" width="11" height="11"/>
    <rect x="66" y="132" width="11" height="11"/>
    <rect x="88" y="132" width="11" height="11"/>
    <rect x="110" y="132" width="11" height="11"/>
    <rect x="121" y="132" width="11" height="11"/>
    <rect x="143" y="132" width="11" height="11"/>
    <rect x="154" y="132" width="11" height="11"/>
    <rect x="165" y="132" width="11" height="11"/>
    <rect x="176" y="132" width="11" height="11"/>
    <rect x="187" y="132" width="11" height="11"/>
    <rect x="198" y="132" width="11" height="11"/>
    <rect x="231" y="132" width="11" height="11"/>
    <rect x="253" y="132" width="11" height="11"/>
    <rect x="264" y="132" width="11" height="11"/>
    <rect x="11" y="143" width="11" height="11"/>
    <rect x="33" y="143" width="11" height="11"/>
    <rect x="88" y="143" width="11" height="11"/>
    <rect x="121" y="143" width="11" height="11"/>
    <rect x="132" y="143" width="11" height="11"/>
    <rect x="143" y="143" width="11" height="11"/>
    <rect x="198" y="143" width="11" height="11"/>
    <rect x="209" y="143" width="11" height="11"/>
    <rect x="231" y="143" width="11" height="11"/>
    <rect x="242" y="143" width="11" height="11"/>
    <rect x="264" y="143" width="11" height="11"/>
    <rect x="0" y="154" width="11" height="11"/>
    <rect x="22" y="154" width="11" height="11"/>
    <rect x="55" y="154" width="11" height="11"/>
    <rect x="66" y="154" width="11" height="11"/>
    <rect x="88" y="154" width="11" height="11"/>
    <rect x="99" y="154" width="11" height="11"/>
    <rect x="121" y="154" width="11" height="11"/>
    <rect x="132" y="154" width="11" height="11"/>
    <rect x="143" y="154" width="11" height="11"/>
    <rect x="154" y="154" width="11" height="11"/>
    <rect x="198" y="154" width="11" height="11"/>
    <rect x="209" y="154" width="11" height="11"/>
    <rect x="220" y="154" width="11" height="11"/>
    <rect x="242" y="154" width="11" height="11"/>
    <rect x="264" y="154" width="11" height="11"/>
    <rect x="11" y="165" width="11" height="11"/>
    <rect x="44" y="165" width="11" height="11"/>
    <rect x="88" y="165" width="11" height="11"/>
    <rect x="132" y="165" width="11" height="11"/>
    <rect x="143" y="165" width="11" height="11"/>
    <rect x="154" y="165" width="11" height="11"/>
    <rect x="187" y="165" width="11" height="11"/>
    <rect x="220" y="165" width="11" height="11"/>
    <rect x="253" y="165" width="11" height="11"/>
    <rect x="0" y="176" width="11" height="11"/>
    <rect x="11" y="176" width="11" height="11"/>
    <rect x="22" y="176" width="11" height="11"/>
    <rect x="55" y="176" width="11" height="11"/>
    <rect x="66" y="176" width="11" height="11"/>
    <rect x="88" y="176" width="11" height="11"/>
    <rect x="99" y="176" width="11" height="11"/>
    <rect x="110" y="176" width="11" height="11"/>
    <rect x="154" y="176" width="11" height="11"/>
    <rect x="165" y="176" width="11" height="11"/>
    <rect x="176" y="176" width="11" height="11"/>
    <rect x="187" y="176" width="11" height="11"/>
    <rect x="198" y="176" width="11" height="11"/>
    <rect x="209" y="176" width="11" height="11"/>
    <rect x="220" y="176" width="11" height="11"/>
    <rect x="231" y="176" width="11" height="11"/>
    <rect x="242" y="176" width="11" height="11"/>
    <rect x="88" y="187" width="11" height="11"/>
    <rect x="110" y="187" width="11" height="11"/>
    <rect x="121" y="187" width="11" height="11"/>
    <rect x="132" y="187" width="11" height="11"/>
    <rect x="143" y="187" width="11" height="11"/>
    <rect x="165" y="187" width="11" height="11"/>
    <rect x="176" y="187" width="11" height="11"/>
    <rect x="220" y="187" width="11" height="11"/>
    <rect x="231" y="187" width="11" height="11"/>
    <rect x="264" y="187" width="11" height="11"/>
    <rect x="0" y="198" width="11" height="11"/>
    <rect x="11" y="198" width="11" height="11"/>
    <rect x="22" y="198" width="11" height="11"/>
    <rect x="33" y="198" width="11" height="11"/>
    <rect x="44" y="198" width="11" height="11"/>
    <rect x="55" y="198" width="11" height="11"/>
    <rect x="66" y="198" width="11" height="11"/>
    <rect x="88" y="198" width="11" height="11"/>
    <rect x="165" y="198" width="11" height="11"/>
    <rect x="176" y="198" width="11" height="11"/>
    <rect x="198" y="198" width="11" height="11"/>
    <rect x="220" y="198" width="11" height="11"/>
    <rect x="231" y="198" width="11" height="11"/>
    <rect x="253" y="198" width="11" height="11"/>
    <rect x="264" y="198" width="11" height="11"/>
    <rect x="0" y="209" width="11" height="11"/>
    <rect x="66" y="209" width="11" height="11"/>
    <rect x="154" y="209" width="11" height="11"/>
    <rect x="176" y="209" width="11" height="11"/>
    <rect x="220" y="209" width="11" height="11"/>
    <rect x="231" y="209" width="11" height="11"/>
    <rect x="242" y="209" width="11" height="11"/>
    <rect x="253" y="209" width="11" height="11"/>
    <rect x="264" y="209" width="11" height="11"/>
    <rect x="0" y="220" width="11" height="11"/>
    <rect x="22" y="220" width="11" height="11"/>
    <rect x="33" y="220" width="11" height="11"/>
    <rect x="44" y="220" width="11" height="11"/>
    <rect x="66" y="220" width="11" height="11"/>
    <rect x="132" y="220" width="11" height="11"/>
    <rect x="143" y="220" width="11" height="11"/>
    <rect x="154" y="220" width="11" height="11"/>
    <rect x="176" y="220" width="11" height="11"/>
    <rect x="187" y="220" width="11" height="11"/>
    <rect x="198" y="220" width="11" height="11"/>
    <rect x="209" y="220" width="11" height="11"/>
    <rect x="220" y="220" width="11" height="11"/>
    <rect x="231" y="220" width="11" height="11"/>
    <rect x="0" y="231" width="11" height="11"/>
    <rect x="22" y="231" width="11" height="11"/>
    <rect x="33" y="231" width="11" height="11"/>
    <rect x="44" y="231" width="11" height="11"/>
    <rect x="66" y="231" width="11" height="11"/>
    <rect x="88" y="231" width="11" height="11"/>
    <rect x="99" y="231" width="11" height="11"/>
    <rect x="110" y="231" width="11" height="11"/>
    <rect x="132" y="231" width="11" height="11"/>
    <rect x="143" y="231" width="11" height="11"/>
    <rect x="165" y="231" width="11" height="11"/>
    <rect x="176" y="231" width="11" height="11"/>
    <rect x="209" y="231" width="11" height="11"/>
    <rect x="220" y="231" width="11" height="11"/>
    <rect x="231" y="231" width="11" height="11"/>
    <rect x="242" y="231" width="11" height="11"/>
    <rect x="0" y="242" width="11" height="11"/>
    <rect x="22" y="242" width="11" height="11"/>
    <rect x="33" y="242" width="11" height="11"/>
    <rect x="44" y="242" width="11" height="11"/>
    <rect x="66" y="242" width="11" height="11"/>
    <rect x="99" y="242" width="11" height="11"/>
    <rect x="154" y="242" width="11" height="11"/>
    <rect x="165" y="242" width="11" height="11"/>
    <rect x="176" y="242" width="11" height="11"/>
    <rect x="209" y="242" width="11" height="11"/>
    <rect x="220" y="242" width="11" height="11"/>
    <rect x="242" y="242" width="11" height="11"/>
    <rect x="264" y="242" width="11" height="11"/>
    <rect x="0" y="253" width="11" height="11"/>
    <rect x="66" y="253" width="11" height="11"/>
    <rect x="88" y="253" width="11" height="11"/>
    <rect x="110" y="253" width="11" height="11"/>
    <rect x="132" y="253" width="11" height="11"/>
    <rect x="143" y="253" width="11" height="11"/>
    <rect x="154" y="253" width="11" height="11"/>
    <rect x="165" y="253" width="11" height="11"/>
    <rect x="176" y="253" width="11" height="11"/>
    <rect x="198" y="253" width="11" height="11"/>
    <rect x="231" y="253" width="11" height="11"/>
    <rect x="0" y="264" width="11" height="11"/>
    <rect x="11" y="264" width="11" height="11"/>
    <rect x="22" y="264" width="11" height="11"/>
    <rect x="33" y="264" width="11" height="11"/>
    <rect x="44" y="264" width="11" height="11"/>
    <rect x="55" y="264" width="11" height="11"/>
    <rect x="66" y="264" width="11" height="11"/>
    <rect x="88" y="264" width="11" height="11"/>
    <rect x="143" y="264" width="11" height="11"/>
    <rect x="165" y="264" width="11" height="11"/>
    <rect x="176" y="264" width="11" height="11"/>
    <rect x="187" y="264" width="11" height="11"/>
    <rect x="198" y="264" width="11" height="11"/>
    <rect x="209" y="264" width="11" height="11"/>
    <rect x="253" y="264" width="11" height="11"/>
    <rect x="264" y="264" width="11" height="11"/>
  </g>
</svg>
